<?xml version="1.0" encoding="utf-8"?>
<!-- Generator: Adobe Illustrator 16.0.0, SVG Export Plug-In . SVG Version: 6.00 Build 0)  -->
<!DOCTYPE svg PUBLIC "-//W3C//DTD SVG 1.1//EN" "http://www.w3.org/Graphics/SVG/1.1/DTD/svg11.dtd">
<svg version="1.1" id="レイヤー_1" xmlns="http://www.w3.org/2000/svg" xmlns:xlink="http://www.w3.org/1999/xlink" x="0px"
	 y="0px" width="595.2px" height="841.8px" viewBox="0 0 595.2 841.8" enable-background="new 0 0 595.2 841.8"
	 xml:space="preserve">
<g>
	<defs>
		<rect id="SVGID_1_" x="51.36" y="54.96" width="437.74" height="130.82"/>
	</defs>
	<clipPath id="SVGID_2_">
		<use xlink:href="#SVGID_1_"  overflow="visible"/>
	</clipPath>
	
		<rect x="50.88" y="54.48" clip-path="url(#SVGID_2_)" fill-rule="evenodd" clip-rule="evenodd" fill="#D9D9D9" width="437.86" height="19.32"/>
	<g clip-path="url(#SVGID_2_)">
		<text transform="matrix(1 0 0 1 52.9199 67.9199)" font-family="'YuGothic-Regular'" font-size="11.04">部品名</text>
	</g>
	<g clip-path="url(#SVGID_2_)">
		<text transform="matrix(1 0 0 1 183.7402 67.9199)" font-family="'YuGothic-Regular'" font-size="11.04">メーカー</text>
	</g>
	<g clip-path="url(#SVGID_2_)">
		<text transform="matrix(1 0 0 1 238.8501 67.9199)" font-family="'YuGothic-Regular'" font-size="11.04">型番等</text>
	</g>
	<g clip-path="url(#SVGID_2_)">
		<text transform="matrix(1 0 0 1 352.8701 67.9199)" font-family="'YuGothic-Regular'" font-size="11.04">個数</text>
	</g>
	<g clip-path="url(#SVGID_2_)">
		<text transform="matrix(1 0 0 1 385.0303 67.9199)" font-family="'YuGothic-Regular'" font-size="11.04">備考</text>
	</g>
	<g clip-path="url(#SVGID_2_)">
		<text transform="matrix(1 0 0 1 52.9199 87.1196)"><tspan x="0" y="0" font-family="'YuGothic-Regular'" font-size="11.04">ロータリース</tspan><tspan x="66.24" y="0" font-family="'YuGothic-Regular'" font-size="11.04">イ</tspan><tspan x="76.916" y="0" font-family="'YuGothic-Regular'" font-size="11.04">ッチ</tspan></text>
	</g>
	<g clip-path="url(#SVGID_2_)">
		<text transform="matrix(1 0 0 1 238.8501 87.1196)" font-family="'YuGothic-Regular'" font-size="11.04">3接点</text>
	</g>
	<path clip-path="url(#SVGID_2_)" d="M378.388,78.851v7.439h1.488v0.588h-3.763V86.29h1.59V79.6c-0.467,0.32-1.008,0.596-1.622,0.83
		l-0.124-0.642c0.61-0.205,1.232-0.518,1.865-0.938H378.388z"/>
	<g clip-path="url(#SVGID_2_)">
		<text transform="matrix(1 0 0 1 385.0303 87.1196)" font-family="'YuGothic-Regular'" font-size="11.04">小型品がおすすめ</text>
	</g>
	<g clip-path="url(#SVGID_2_)">
		<text transform="matrix(1 0 0 1 52.9199 105.96)"><tspan x="0" y="0" font-family="'YuGothic-Regular'" font-size="11.04">XH</tspan><tspan x="15.446" y="0" font-family="'YuGothic-Regular'" font-size="11.04"> コンタクトピン</tspan></text>
	</g>
	<path clip-path="url(#SVGID_2_)" d="M186.91,97.669v6.102c0,0.748-0.233,1.308-0.701,1.682c-0.356,0.28-0.796,0.42-1.321,0.42
		c-0.144,0-0.39-0.016-0.738-0.048l-0.043-0.615c0.241,0.036,0.491,0.054,0.75,0.054c0.41,0,0.737-0.146,0.981-0.437
		c0.237-0.28,0.356-0.665,0.356-1.153v-6.005H186.91z M191.603,97.523c1.29,0,2.154,0.622,2.593,1.865l-0.728,0.232
		c-0.306-0.985-0.924-1.477-1.854-1.477c-0.579,0-1.026,0.147-1.342,0.442c-0.277,0.255-0.415,0.586-0.415,0.992
		c0,0.482,0.151,0.847,0.453,1.094c0.262,0.208,0.701,0.388,1.315,0.539l0.323,0.092c0.996,0.251,1.667,0.584,2.016,0.998
		c0.273,0.32,0.41,0.764,0.41,1.331c0,0.726-0.27,1.292-0.809,1.698c-0.481,0.363-1.118,0.544-1.908,0.544
		c-0.762,0-1.394-0.192-1.897-0.577c-0.442-0.341-0.758-0.813-0.949-1.413l0.728-0.275c0.291,1.104,0.994,1.655,2.107,1.655
		c0.697,0,1.216-0.166,1.558-0.496c0.273-0.27,0.41-0.627,0.41-1.073c0-0.496-0.146-0.868-0.437-1.116
		c-0.281-0.237-0.775-0.446-1.482-0.625l-0.281-0.081c-0.909-0.233-1.534-0.548-1.875-0.943c-0.281-0.327-0.421-0.767-0.421-1.321
		c0-0.622,0.239-1.13,0.717-1.525C190.288,97.71,190.877,97.523,191.603,97.523L191.603,97.523z M201.557,97.669V98.3h-2.593v7.417
		h-0.728V98.3h-2.582v-0.631H201.557z"/>
	<path clip-path="url(#SVGID_2_)" d="M242.273,97.523c1.29,0,2.154,0.622,2.593,1.865l-0.728,0.232
		c-0.306-0.985-0.924-1.477-1.854-1.477c-0.579,0-1.026,0.147-1.342,0.442c-0.276,0.255-0.415,0.586-0.415,0.992
		c0,0.482,0.151,0.847,0.453,1.094c0.262,0.208,0.701,0.388,1.315,0.539l0.324,0.092c0.995,0.251,1.667,0.584,2.016,0.998
		c0.273,0.32,0.41,0.764,0.41,1.331c0,0.726-0.27,1.292-0.809,1.698c-0.482,0.363-1.118,0.544-1.908,0.544
		c-0.762,0-1.395-0.192-1.897-0.577c-0.442-0.341-0.759-0.813-0.949-1.413l0.728-0.275c0.291,1.104,0.994,1.655,2.108,1.655
		c0.697,0,1.216-0.166,1.558-0.496c0.273-0.27,0.41-0.627,0.41-1.073c0-0.496-0.146-0.868-0.437-1.116
		c-0.28-0.237-0.774-0.446-1.482-0.625l-0.28-0.081c-0.909-0.233-1.535-0.548-1.876-0.943c-0.28-0.327-0.42-0.767-0.42-1.321
		c0-0.622,0.239-1.13,0.717-1.525C240.958,97.71,241.547,97.523,242.273,97.523L242.273,97.523z M252.328,97.669l-2.561,3.865
		l2.717,4.183h-0.852l-1.962-3.089c-0.147-0.237-0.263-0.418-0.345-0.544c-0.097,0.169-0.21,0.354-0.339,0.555l-1.93,3.078h-0.819
		l2.685-4.162l-2.496-3.887h0.835l1.757,2.782l0.367,0.561c0.05-0.072,0.115-0.174,0.194-0.307c0.083-0.137,0.138-0.229,0.167-0.275
		l1.769-2.76H252.328z M259.979,97.669v8.048h-0.728v-3.93h-4.275v3.93h-0.728v-8.048h0.728v3.488h4.275v-3.488H259.979z
		 M265.191,102.316v0.62h-3.035v-0.62H265.191z M266.781,101.744c0-2.717,0.792-4.075,2.377-4.075c1.566,0,2.35,1.352,2.35,4.054
		c0,2.76-0.792,4.14-2.377,4.14C267.564,105.863,266.781,104.49,266.781,101.744L266.781,101.744z M270.312,98.958
		c-0.255-0.453-0.64-0.679-1.153-0.679c-0.597,0-1.022,0.296-1.278,0.889c-0.241,0.554-0.361,1.405-0.361,2.555
		c0,1.326,0.151,2.268,0.453,2.825c0.255,0.471,0.642,0.706,1.159,0.706c0.597,0,1.024-0.311,1.283-0.932
		c0.237-0.568,0.356-1.431,0.356-2.588C270.77,100.422,270.617,99.497,270.312,98.958L270.312,98.958z M272.919,101.744
		c0-2.717,0.792-4.075,2.377-4.075c1.567,0,2.35,1.352,2.35,4.054c0,2.76-0.792,4.14-2.377,4.14
		C273.703,105.863,272.919,104.49,272.919,101.744L272.919,101.744z M276.45,98.958c-0.255-0.453-0.64-0.679-1.153-0.679
		c-0.597,0-1.022,0.296-1.278,0.889c-0.241,0.554-0.361,1.405-0.361,2.555c0,1.326,0.151,2.268,0.453,2.825
		c0.255,0.471,0.642,0.706,1.159,0.706c0.596,0,1.024-0.311,1.283-0.932c0.237-0.568,0.356-1.431,0.356-2.588
		C276.908,100.422,276.755,99.497,276.45,98.958L276.45,98.958z M281.865,97.69v7.439h1.488v0.587h-3.763v-0.587h1.59v-6.69
		c-0.467,0.32-1.008,0.597-1.623,0.83l-0.124-0.642c0.611-0.205,1.232-0.518,1.865-0.938H281.865z M290.865,97.669V98.3h-2.593
		v7.417h-0.728V98.3h-2.583v-0.631H290.865z M295.308,102.316v0.62h-3.035v-0.62H295.308z M297.437,97.669h2.593
		c0.967,0,1.683,0.218,2.146,0.652c0.396,0.37,0.594,0.886,0.594,1.547c0,0.748-0.271,1.321-0.814,1.72
		c-0.488,0.356-1.151,0.534-1.989,0.534h-1.8v3.596h-0.729V97.669z M298.165,98.278v3.245h1.757c1.391,0,2.086-0.548,2.086-1.645
		c0-1.067-0.674-1.601-2.021-1.601H298.165z M304.195,101.744c0-2.717,0.792-4.075,2.377-4.075c1.567,0,2.351,1.352,2.351,4.054
		c0,2.76-0.793,4.14-2.377,4.14C304.979,105.863,304.195,104.49,304.195,101.744L304.195,101.744z M307.726,98.958
		c-0.255-0.453-0.64-0.679-1.153-0.679c-0.597,0-1.022,0.296-1.277,0.889c-0.241,0.554-0.361,1.405-0.361,2.555
		c0,1.326,0.151,2.268,0.453,2.825c0.255,0.471,0.642,0.706,1.159,0.706c0.596,0,1.023-0.311,1.282-0.932
		c0.237-0.568,0.356-1.431,0.356-2.588C308.185,100.422,308.031,99.497,307.726,98.958L307.726,98.958z M311.605,104.591v1.126
		h-1.104v-1.126H311.605z M315.92,97.669c0.827,0,1.427,0.345,1.801,1.035l-0.663,0.323c-0.227-0.507-0.613-0.76-1.159-0.76
		c-1.236,0-1.876,1.202-1.919,3.606c0.499-0.801,1.125-1.202,1.876-1.202c0.64,0,1.15,0.255,1.531,0.766
		c0.334,0.449,0.501,1.022,0.501,1.72c0,0.884-0.239,1.576-0.717,2.075c-0.399,0.42-0.9,0.631-1.504,0.631
		c-0.766,0-1.358-0.343-1.779-1.03c-0.396-0.64-0.593-1.529-0.593-2.668c0-1.617,0.268-2.805,0.803-3.563
		C314.54,97.98,315.147,97.669,315.92,97.669L315.92,97.669z M315.748,101.281c-0.69,0-1.272,0.429-1.747,1.289
		c0.007,0.952,0.188,1.662,0.545,2.129c0.287,0.377,0.661,0.566,1.121,0.566c0.499,0,0.882-0.205,1.148-0.615
		c0.236-0.363,0.355-0.857,0.355-1.482c0-0.629-0.146-1.112-0.437-1.45C316.482,101.426,316.153,101.281,315.748,101.281
		L315.748,101.281z"/>
	<path clip-path="url(#SVGID_2_)" d="M372.268,97.69v7.439h1.488v0.587h-3.763v-0.587h1.59v-6.69
		c-0.467,0.32-1.008,0.597-1.622,0.83l-0.124-0.642c0.61-0.205,1.232-0.518,1.865-0.938H372.268z M379.703,100.747
		c-0.241,0.273-0.633,0.528-1.175,0.766c0.7,0.309,1.186,0.654,1.455,1.035c0.223,0.313,0.334,0.699,0.334,1.159
		c0,0.715-0.255,1.269-0.766,1.66c-0.431,0.331-0.984,0.496-1.66,0.496c-0.772,0-1.38-0.212-1.821-0.636
		c-0.399-0.381-0.599-0.878-0.599-1.493c0-0.503,0.16-0.927,0.479-1.272c0.276-0.298,0.714-0.586,1.31-0.863
		c-0.596-0.284-1.011-0.596-1.245-0.938c-0.201-0.287-0.302-0.641-0.302-1.062c0-0.6,0.227-1.083,0.68-1.45
		c0.398-0.32,0.896-0.48,1.493-0.48c0.697,0,1.254,0.201,1.671,0.604c0.359,0.349,0.539,0.78,0.539,1.293
		C380.097,100.048,379.966,100.441,379.703,100.747L379.703,100.747z M377.822,101.863c-0.641,0.288-1.084,0.584-1.332,0.89
		c-0.216,0.266-0.323,0.584-0.323,0.954c0,0.518,0.174,0.917,0.522,1.197c0.302,0.248,0.703,0.372,1.202,0.372
		c0.582,0,1.028-0.158,1.337-0.475c0.263-0.27,0.394-0.631,0.394-1.083c0-0.417-0.131-0.76-0.394-1.03
		c-0.24-0.244-0.646-0.488-1.218-0.733L377.822,101.863z M377.989,101.259c0.571-0.245,0.961-0.512,1.169-0.803
		c0.169-0.23,0.254-0.523,0.254-0.879c0-0.428-0.158-0.765-0.475-1.013c-0.273-0.216-0.623-0.324-1.051-0.324
		c-0.481,0-0.859,0.14-1.132,0.421c-0.237,0.244-0.356,0.557-0.356,0.938c0,0.371,0.111,0.674,0.334,0.911
		c0.213,0.223,0.568,0.442,1.067,0.658L377.989,101.259z"/>
	<g clip-path="url(#SVGID_2_)">
		<text transform="matrix(1 0 0 1 385.0303 105.96)" font-family="'YuGothic-Regular'" font-size="11.04">予備に多めに</text>
	</g>
	<g clip-path="url(#SVGID_2_)">
		<text transform="matrix(1 0 0 1 52.9199 124.4399)"><tspan x="0" y="0" font-family="'YuGothic-Regular'" font-size="11.04">XH</tspan><tspan x="15.446" y="0" font-family="'YuGothic-Regular'" font-size="11.04"> ハウジング</tspan><tspan x="73.794" y="0" font-family="'YuGothic-Regular'" font-size="11.04"> </tspan><tspan x="76.887" y="0" font-family="'YuGothic-Regular'" font-size="11.04">6P</tspan></text>
	</g>
	<path clip-path="url(#SVGID_2_)" d="M186.91,116.149v6.102c0,0.748-0.233,1.309-0.701,1.682c-0.356,0.28-0.796,0.42-1.321,0.42
		c-0.144,0-0.39-0.016-0.738-0.048l-0.043-0.615c0.241,0.036,0.491,0.054,0.75,0.054c0.41,0,0.737-0.146,0.981-0.437
		c0.237-0.28,0.356-0.665,0.356-1.153v-6.005H186.91z M191.603,116.003c1.29,0,2.154,0.622,2.593,1.865l-0.728,0.232
		c-0.306-0.985-0.924-1.477-1.854-1.477c-0.579,0-1.026,0.147-1.342,0.442c-0.277,0.255-0.415,0.586-0.415,0.992
		c0,0.482,0.151,0.847,0.453,1.094c0.262,0.209,0.701,0.388,1.315,0.539l0.323,0.092c0.996,0.252,1.667,0.584,2.016,0.998
		c0.273,0.32,0.41,0.764,0.41,1.332c0,0.726-0.27,1.292-0.809,1.698c-0.481,0.363-1.118,0.544-1.908,0.544
		c-0.762,0-1.394-0.192-1.897-0.577c-0.442-0.341-0.758-0.812-0.949-1.413l0.728-0.275c0.291,1.104,0.994,1.655,2.107,1.655
		c0.697,0,1.216-0.166,1.558-0.496c0.273-0.27,0.41-0.627,0.41-1.073c0-0.496-0.146-0.868-0.437-1.116
		c-0.281-0.237-0.775-0.446-1.482-0.625l-0.281-0.081c-0.909-0.233-1.534-0.548-1.875-0.943c-0.281-0.327-0.421-0.767-0.421-1.32
		c0-0.622,0.239-1.13,0.717-1.526C190.288,116.19,190.877,116.003,191.603,116.003L191.603,116.003z M201.557,116.149v0.631h-2.593
		v7.417h-0.728v-7.417h-2.582v-0.631H201.557z"/>
	<path clip-path="url(#SVGID_2_)" d="M245.394,116.149l-2.561,3.865l2.717,4.183h-0.852l-1.962-3.089
		c-0.147-0.237-0.263-0.418-0.345-0.544c-0.097,0.169-0.21,0.354-0.339,0.555l-1.93,3.078h-0.819l2.685-4.162l-2.496-3.887h0.835
		l1.757,2.782l0.367,0.561c0.05-0.072,0.115-0.174,0.194-0.307c0.083-0.137,0.138-0.228,0.167-0.275l1.768-2.76H245.394z
		 M253.013,116.149v8.048h-0.728v-3.93h-4.275v3.93h-0.728v-8.048h0.728v3.488h4.275v-3.488H253.013z M255.551,116.149h2.593
		c0.967,0,1.682,0.218,2.146,0.652c0.395,0.37,0.593,0.886,0.593,1.547c0,0.747-0.271,1.32-0.814,1.719
		c-0.489,0.356-1.152,0.534-1.989,0.534h-1.8v3.596h-0.728V116.149z M256.279,116.758v3.245h1.757c1.391,0,2.086-0.548,2.086-1.644
		c0-1.067-0.674-1.601-2.021-1.601H256.279z M265.522,120.796v0.62h-3.035v-0.62H265.522z M269.85,116.149
		c0.827,0,1.427,0.345,1.801,1.035l-0.663,0.323c-0.227-0.506-0.613-0.76-1.159-0.76c-1.236,0-1.876,1.202-1.919,3.606
		c0.5-0.801,1.125-1.202,1.876-1.202c0.64,0,1.15,0.255,1.531,0.766c0.334,0.449,0.501,1.022,0.501,1.72
		c0,0.884-0.239,1.576-0.717,2.075c-0.399,0.421-0.9,0.631-1.504,0.631c-0.765,0-1.358-0.343-1.779-1.03
		c-0.395-0.64-0.593-1.529-0.593-2.668c0-1.617,0.268-2.805,0.803-3.563C268.47,116.46,269.078,116.149,269.85,116.149
		L269.85,116.149z M269.678,119.761c-0.69,0-1.272,0.43-1.747,1.289c0.007,0.952,0.189,1.662,0.544,2.129
		c0.288,0.377,0.661,0.566,1.121,0.566c0.5,0,0.882-0.205,1.148-0.615c0.237-0.363,0.356-0.857,0.356-1.482
		c0-0.629-0.146-1.112-0.437-1.45C270.413,119.906,270.084,119.761,269.678,119.761L269.678,119.761z"/>
	<path clip-path="url(#SVGID_2_)" d="M378.388,116.17v7.439h1.488v0.587h-3.763v-0.587h1.59v-6.69
		c-0.467,0.32-1.008,0.597-1.622,0.83l-0.124-0.642c0.61-0.205,1.232-0.518,1.865-0.938H378.388z"/>
	<g clip-path="url(#SVGID_2_)">
		<text transform="matrix(1 0 0 1 52.9199 142.9199)"><tspan x="0" y="0" font-family="'YuGothic-Regular'" font-size="11.04">XH</tspan><tspan x="15.446" y="0" font-family="'YuGothic-Regular'" font-size="11.04"> ハウジング</tspan><tspan x="73.794" y="0" font-family="'YuGothic-Regular'" font-size="11.04"> </tspan><tspan x="76.887" y="0" font-family="'YuGothic-Regular'" font-size="11.04">4P</tspan></text>
	</g>
	<path clip-path="url(#SVGID_2_)" d="M186.91,134.629v6.103c0,0.747-0.233,1.308-0.701,1.682c-0.356,0.28-0.796,0.42-1.321,0.42
		c-0.144,0-0.39-0.016-0.738-0.048l-0.043-0.615c0.241,0.036,0.491,0.054,0.75,0.054c0.41,0,0.737-0.146,0.981-0.437
		c0.237-0.28,0.356-0.665,0.356-1.153v-6.005H186.91z M191.603,134.483c1.29,0,2.154,0.622,2.593,1.865l-0.728,0.232
		c-0.306-0.985-0.924-1.477-1.854-1.477c-0.579,0-1.026,0.147-1.342,0.442c-0.277,0.255-0.415,0.586-0.415,0.992
		c0,0.482,0.151,0.847,0.453,1.095c0.262,0.208,0.701,0.388,1.315,0.539l0.323,0.091c0.996,0.251,1.667,0.584,2.016,0.998
		c0.273,0.32,0.41,0.764,0.41,1.331c0,0.726-0.27,1.292-0.809,1.698c-0.481,0.363-1.118,0.544-1.908,0.544
		c-0.762,0-1.394-0.192-1.897-0.577c-0.442-0.341-0.758-0.812-0.949-1.413l0.728-0.275c0.291,1.104,0.994,1.655,2.107,1.655
		c0.697,0,1.216-0.166,1.558-0.496c0.273-0.27,0.41-0.627,0.41-1.073c0-0.496-0.146-0.868-0.437-1.116
		c-0.281-0.237-0.775-0.446-1.482-0.625l-0.281-0.081c-0.909-0.233-1.534-0.548-1.875-0.943c-0.281-0.327-0.421-0.767-0.421-1.32
		c0-0.622,0.239-1.13,0.717-1.526C190.288,134.67,190.877,134.483,191.603,134.483L191.603,134.483z M201.557,134.629v0.631h-2.593
		v7.417h-0.728v-7.417h-2.582v-0.631H201.557z"/>
	<path clip-path="url(#SVGID_2_)" d="M245.394,134.629l-2.561,3.865l2.717,4.183h-0.852l-1.962-3.089
		c-0.147-0.237-0.263-0.418-0.345-0.544c-0.097,0.169-0.21,0.354-0.339,0.555l-1.93,3.078h-0.819l2.685-4.162l-2.496-3.887h0.835
		l1.757,2.782l0.367,0.561c0.05-0.072,0.115-0.174,0.194-0.307c0.083-0.137,0.138-0.229,0.167-0.275l1.768-2.76H245.394z
		 M253.013,134.629v8.048h-0.728v-3.93h-4.275v3.93h-0.728v-8.048h0.728v3.488h4.275v-3.488H253.013z M255.551,134.629h2.593
		c0.967,0,1.682,0.218,2.146,0.652c0.395,0.37,0.593,0.886,0.593,1.547c0,0.748-0.271,1.321-0.814,1.72
		c-0.489,0.356-1.152,0.534-1.989,0.534h-1.8v3.596h-0.728V134.629z M256.279,135.238v3.245h1.757c1.391,0,2.086-0.548,2.086-1.644
		c0-1.067-0.674-1.601-2.021-1.601H256.279z M265.522,139.276v0.62h-3.035v-0.62H265.522z M270.81,134.661v5.547h1.17v0.571h-1.17
		v1.897h-0.63v-1.897h-3.245v-0.539l2.916-5.58H270.81z M270.179,140.208v-3.305c0-0.219,0.007-0.778,0.021-1.676h-0.108
		c-0.223,0.542-0.463,1.058-0.722,1.547l-1.763,3.434H270.179z"/>
	<path clip-path="url(#SVGID_2_)" d="M375.622,136.715c0.147-0.726,0.451-1.269,0.911-1.628c0.389-0.306,0.866-0.458,1.435-0.458
		c0.675,0,1.211,0.203,1.606,0.609c0.355,0.363,0.533,0.837,0.533,1.423c0,0.471-0.128,0.904-0.383,1.299
		c-0.241,0.367-0.668,0.827-1.283,1.38c-1.038,0.909-1.768,1.819-2.188,2.728h3.865v0.609h-4.561v-0.544
		c0.456-1.092,1.253-2.158,2.388-3.197c0.604-0.564,1.001-1.011,1.191-1.342c0.162-0.28,0.243-0.591,0.243-0.933
		c0-0.471-0.149-0.835-0.447-1.094c-0.256-0.219-0.581-0.329-0.976-0.329c-0.906,0-1.452,0.552-1.64,1.655L375.622,136.715z"/>
	<g clip-path="url(#SVGID_2_)">
		<text transform="matrix(1 0 0 1 52.9199 161.4199)"><tspan x="0" y="0" font-family="'YuGothic-Regular'" font-size="11.04">XH</tspan><tspan x="15.446" y="0" font-family="'YuGothic-Regular'" font-size="11.04"> ハウジング</tspan><tspan x="73.794" y="0" font-family="'YuGothic-Regular'" font-size="11.04"> </tspan><tspan x="76.887" y="0" font-family="'YuGothic-Regular'" font-size="11.04">2P</tspan></text>
	</g>
	<path clip-path="url(#SVGID_2_)" d="M186.91,153.129v6.103c0,0.747-0.233,1.308-0.701,1.682c-0.356,0.28-0.796,0.42-1.321,0.42
		c-0.144,0-0.39-0.016-0.738-0.048l-0.043-0.615c0.241,0.036,0.491,0.054,0.75,0.054c0.41,0,0.737-0.146,0.981-0.437
		c0.237-0.28,0.356-0.665,0.356-1.153v-6.005H186.91z M191.603,152.983c1.29,0,2.154,0.622,2.593,1.865l-0.728,0.232
		c-0.306-0.985-0.924-1.477-1.854-1.477c-0.579,0-1.026,0.147-1.342,0.442c-0.277,0.255-0.415,0.586-0.415,0.992
		c0,0.482,0.151,0.847,0.453,1.095c0.262,0.208,0.701,0.388,1.315,0.539l0.323,0.091c0.996,0.251,1.667,0.584,2.016,0.998
		c0.273,0.32,0.41,0.764,0.41,1.331c0,0.726-0.27,1.292-0.809,1.698c-0.481,0.363-1.118,0.544-1.908,0.544
		c-0.762,0-1.394-0.192-1.897-0.577c-0.442-0.341-0.758-0.812-0.949-1.413l0.728-0.275c0.291,1.104,0.994,1.655,2.107,1.655
		c0.697,0,1.216-0.166,1.558-0.496c0.273-0.27,0.41-0.627,0.41-1.073c0-0.496-0.146-0.868-0.437-1.116
		c-0.281-0.237-0.775-0.446-1.482-0.625l-0.281-0.081c-0.909-0.233-1.534-0.548-1.875-0.943c-0.281-0.327-0.421-0.767-0.421-1.32
		c0-0.622,0.239-1.13,0.717-1.526C190.288,153.17,190.877,152.983,191.603,152.983L191.603,152.983z M201.557,153.129v0.631h-2.593
		v7.417h-0.728v-7.417h-2.582v-0.631H201.557z"/>
	<path clip-path="url(#SVGID_2_)" d="M245.394,153.129l-2.561,3.865l2.717,4.183h-0.852l-1.962-3.089
		c-0.147-0.237-0.263-0.418-0.345-0.544c-0.097,0.169-0.21,0.354-0.339,0.555l-1.93,3.078h-0.819l2.685-4.162l-2.496-3.887h0.835
		l1.757,2.782l0.367,0.561c0.05-0.072,0.115-0.174,0.194-0.307c0.083-0.137,0.138-0.229,0.167-0.275l1.768-2.76H245.394z
		 M253.013,153.129v8.048h-0.728v-3.93h-4.275v3.93h-0.728v-8.048h0.728v3.488h4.275v-3.488H253.013z M255.551,153.129h2.593
		c0.967,0,1.682,0.218,2.146,0.652c0.395,0.37,0.593,0.886,0.593,1.547c0,0.748-0.271,1.321-0.814,1.72
		c-0.489,0.356-1.152,0.534-1.989,0.534h-1.8v3.596h-0.728V153.129z M256.279,153.738v3.245h1.757c1.391,0,2.086-0.548,2.086-1.644
		c0-1.067-0.674-1.601-2.021-1.601H256.279z M265.522,157.776v0.62h-3.035v-0.62H265.522z M267.198,155.215
		c0.147-0.726,0.451-1.269,0.911-1.628c0.388-0.306,0.866-0.458,1.434-0.458c0.676,0,1.211,0.203,1.606,0.609
		c0.356,0.363,0.534,0.837,0.534,1.423c0,0.471-0.127,0.904-0.383,1.299c-0.241,0.367-0.668,0.827-1.283,1.38
		c-1.039,0.909-1.769,1.819-2.189,2.728h3.865v0.609h-4.561v-0.544c0.457-1.092,1.252-2.158,2.388-3.197
		c0.604-0.564,1.001-1.011,1.191-1.342c0.162-0.28,0.243-0.591,0.243-0.933c0-0.471-0.149-0.835-0.448-1.094
		c-0.255-0.219-0.58-0.329-0.976-0.329c-0.906,0-1.452,0.552-1.639,1.655L267.198,155.215z"/>
	<path clip-path="url(#SVGID_2_)" d="M375.622,155.215c0.147-0.726,0.451-1.269,0.911-1.628c0.389-0.306,0.866-0.458,1.435-0.458
		c0.675,0,1.211,0.203,1.606,0.609c0.355,0.363,0.533,0.837,0.533,1.423c0,0.471-0.128,0.904-0.383,1.299
		c-0.241,0.367-0.668,0.827-1.283,1.38c-1.038,0.909-1.768,1.819-2.188,2.728h3.865v0.609h-4.561v-0.544
		c0.456-1.092,1.253-2.158,2.388-3.197c0.604-0.564,1.001-1.011,1.191-1.342c0.162-0.28,0.243-0.591,0.243-0.933
		c0-0.471-0.149-0.835-0.447-1.094c-0.256-0.219-0.581-0.329-0.976-0.329c-0.906,0-1.452,0.552-1.64,1.655L375.622,155.215z"/>
	<g clip-path="url(#SVGID_2_)">
		<text transform="matrix(1 0 0 1 52.9199 179.8999)" font-family="'YuGothic-Regular'" font-size="11.04">ステレオミニジャック</text>
	</g>
	<path clip-path="url(#SVGID_2_)" d="M379.234,171.642v5.547h1.17v0.571h-1.17v1.897h-0.631v-1.897h-3.245v-0.539l2.916-5.579
		H379.234z M378.604,177.188v-3.305c0-0.219,0.007-0.778,0.021-1.676h-0.107c-0.224,0.542-0.464,1.058-0.723,1.547l-1.763,3.434
		H378.604z"/>
</g>
<g>
	<defs>
		<rect id="SVGID_3_" x="49.44" y="53.04" width="441.7" height="134.78"/>
	</defs>
	<clipPath id="SVGID_4_">
		<use xlink:href="#SVGID_3_"  overflow="visible"/>
	</clipPath>
	
		<line clip-path="url(#SVGID_4_)" fill="none" stroke="#000000" stroke-width="0.14" stroke-linecap="square" stroke-linejoin="round" stroke-miterlimit="10" x1="181.28" y1="55.02" x2="181.28" y2="72.18"/>
	<rect x="181.22" y="54.96" clip-path="url(#SVGID_4_)" fill-rule="evenodd" clip-rule="evenodd" width="0.96" height="17.28"/>
	
		<line clip-path="url(#SVGID_4_)" fill="none" stroke="#000000" stroke-width="0.14" stroke-linecap="square" stroke-linejoin="round" stroke-miterlimit="10" x1="236.39" y1="55.02" x2="236.39" y2="72.18"/>
	<rect x="236.33" y="54.96" clip-path="url(#SVGID_4_)" fill-rule="evenodd" clip-rule="evenodd" width="0.96" height="17.28"/>
	
		<line clip-path="url(#SVGID_4_)" fill="none" stroke="#000000" stroke-width="0.14" stroke-linecap="square" stroke-linejoin="round" stroke-miterlimit="10" x1="350.41" y1="55.02" x2="350.41" y2="72.18"/>
	<rect x="350.35" y="54.96" clip-path="url(#SVGID_4_)" fill-rule="evenodd" clip-rule="evenodd" width="0.96" height="17.28"/>
	
		<line clip-path="url(#SVGID_4_)" fill="none" stroke="#000000" stroke-width="0.14" stroke-linecap="square" stroke-linejoin="round" stroke-miterlimit="10" x1="382.57" y1="55.02" x2="382.57" y2="72.18"/>
	<rect x="382.51" y="54.96" clip-path="url(#SVGID_4_)" fill-rule="evenodd" clip-rule="evenodd" width="0.96" height="17.28"/>
	
		<line clip-path="url(#SVGID_4_)" fill="none" stroke="#000000" stroke-width="0.14" stroke-linecap="square" stroke-linejoin="round" stroke-miterlimit="10" x1="50.46" y1="54.06" x2="50.46" y2="185.72"/>
	<rect x="50.4" y="54" clip-path="url(#SVGID_4_)" fill-rule="evenodd" clip-rule="evenodd" width="0.96" height="131.78"/>
	
		<line clip-path="url(#SVGID_4_)" fill="none" stroke="#000000" stroke-width="0.14" stroke-linecap="square" stroke-linejoin="round" stroke-miterlimit="10" x1="181.28" y1="75.18" x2="181.28" y2="185.72"/>
	<rect x="181.22" y="75.12" clip-path="url(#SVGID_4_)" fill-rule="evenodd" clip-rule="evenodd" width="0.96" height="110.66"/>
	
		<line clip-path="url(#SVGID_4_)" fill="none" stroke="#000000" stroke-width="0.14" stroke-linecap="square" stroke-linejoin="round" stroke-miterlimit="10" x1="236.39" y1="75.18" x2="236.39" y2="185.72"/>
	<rect x="236.33" y="75.12" clip-path="url(#SVGID_4_)" fill-rule="evenodd" clip-rule="evenodd" width="0.96" height="110.66"/>
	
		<line clip-path="url(#SVGID_4_)" fill="none" stroke="#000000" stroke-width="0.14" stroke-linecap="square" stroke-linejoin="round" stroke-miterlimit="10" x1="350.41" y1="75.18" x2="350.41" y2="185.72"/>
	<rect x="350.35" y="75.12" clip-path="url(#SVGID_4_)" fill-rule="evenodd" clip-rule="evenodd" width="0.96" height="110.66"/>
	
		<line clip-path="url(#SVGID_4_)" fill="none" stroke="#000000" stroke-width="0.14" stroke-linecap="square" stroke-linejoin="round" stroke-miterlimit="10" x1="382.57" y1="75.18" x2="382.57" y2="185.72"/>
	<rect x="382.51" y="75.12" clip-path="url(#SVGID_4_)" fill-rule="evenodd" clip-rule="evenodd" width="0.96" height="110.66"/>
	
		<line clip-path="url(#SVGID_4_)" fill="none" stroke="#000000" stroke-width="0.14" stroke-linecap="square" stroke-linejoin="round" stroke-miterlimit="10" x1="488.2" y1="55.02" x2="488.2" y2="185.72"/>
	<rect x="488.14" y="54.96" clip-path="url(#SVGID_4_)" fill-rule="evenodd" clip-rule="evenodd" width="0.96" height="130.82"/>
	
		<line clip-path="url(#SVGID_4_)" fill="none" stroke="#000000" stroke-width="0.14" stroke-linecap="square" stroke-linejoin="round" stroke-miterlimit="10" x1="51.42" y1="54.06" x2="489.04" y2="54.06"/>
	<rect x="51.36" y="54" clip-path="url(#SVGID_4_)" fill-rule="evenodd" clip-rule="evenodd" width="437.74" height="0.96"/>
	<rect x="51.36" y="72.24" clip-path="url(#SVGID_4_)" fill-rule="evenodd" clip-rule="evenodd" width="436.78" height="0.96"/>
	<rect x="51.36" y="74.16" clip-path="url(#SVGID_4_)" fill-rule="evenodd" clip-rule="evenodd" width="436.78" height="0.96"/>
	
		<line clip-path="url(#SVGID_4_)" fill="none" stroke="#000000" stroke-width="0.14" stroke-linecap="square" stroke-linejoin="round" stroke-miterlimit="10" x1="51.42" y1="92.46" x2="489.04" y2="92.46"/>
	<rect x="51.36" y="92.4" clip-path="url(#SVGID_4_)" fill-rule="evenodd" clip-rule="evenodd" width="437.74" height="0.96"/>
	
		<line clip-path="url(#SVGID_4_)" fill="none" stroke="#000000" stroke-width="0.14" stroke-linecap="square" stroke-linejoin="round" stroke-miterlimit="10" x1="51.42" y1="110.94" x2="489.04" y2="110.94"/>
	<rect x="51.36" y="110.88" clip-path="url(#SVGID_4_)" fill-rule="evenodd" clip-rule="evenodd" width="437.74" height="0.96"/>
	
		<line clip-path="url(#SVGID_4_)" fill="none" stroke="#000000" stroke-width="0.14" stroke-linecap="square" stroke-linejoin="round" stroke-miterlimit="10" x1="51.42" y1="129.42" x2="489.04" y2="129.42"/>
	<rect x="51.36" y="129.36" clip-path="url(#SVGID_4_)" fill-rule="evenodd" clip-rule="evenodd" width="437.74" height="0.96"/>
	
		<line clip-path="url(#SVGID_4_)" fill="none" stroke="#000000" stroke-width="0.14" stroke-linecap="square" stroke-linejoin="round" stroke-miterlimit="10" x1="51.42" y1="147.9" x2="489.04" y2="147.9"/>
	<rect x="51.36" y="147.84" clip-path="url(#SVGID_4_)" fill-rule="evenodd" clip-rule="evenodd" width="437.74" height="0.96"/>
	
		<line clip-path="url(#SVGID_4_)" fill="none" stroke="#000000" stroke-width="0.14" stroke-linecap="square" stroke-linejoin="round" stroke-miterlimit="10" x1="51.42" y1="166.4" x2="489.04" y2="166.4"/>
	<rect x="51.36" y="166.34" clip-path="url(#SVGID_4_)" fill-rule="evenodd" clip-rule="evenodd" width="437.74" height="0.96"/>
	
		<line clip-path="url(#SVGID_4_)" fill="none" stroke="#000000" stroke-width="0.14" stroke-linecap="square" stroke-linejoin="round" stroke-miterlimit="10" x1="51.42" y1="184.88" x2="489.04" y2="184.88"/>
	<rect x="51.36" y="184.82" clip-path="url(#SVGID_4_)" fill-rule="evenodd" clip-rule="evenodd" width="437.74" height="0.96"/>
</g>
</svg>
