<?xml version="1.0" encoding="utf-8"?>
<!-- Generator: Adobe Illustrator 16.0.0, SVG Export Plug-In . SVG Version: 6.00 Build 0)  -->
<!DOCTYPE svg PUBLIC "-//W3C//DTD SVG 1.1//EN" "http://www.w3.org/Graphics/SVG/1.1/DTD/svg11.dtd">
<svg version="1.1" id="レイヤー_1" xmlns="http://www.w3.org/2000/svg" xmlns:xlink="http://www.w3.org/1999/xlink" x="0px"
	 y="0px" width="841.89px" height="595.28px" viewBox="0 0 841.89 595.28" enable-background="new 0 0 841.89 595.28"
	 xml:space="preserve">
<rect x="201.811" y="141.648" fill="#FFFFFF" stroke="#000000" stroke-miterlimit="10" width="159.46" height="223.243"/>
<rect x="286.298" y="149.024" fill="#FFFFFF" stroke="#000000" stroke-miterlimit="10" width="12.756" height="9.922"/>
<rect x="249.541" y="340.916" fill="#FFFFFF" stroke="#000000" stroke-miterlimit="10" width="12.756" height="9.922"/>
<rect x="213.434" y="340.916" fill="#FFFFFF" stroke="#000000" stroke-miterlimit="10" width="25.512" height="9.922"/>
<rect x="327.379" y="217.794" fill="#FFFFFF" stroke="#000000" stroke-miterlimit="10" width="12.756" height="42.521"/>
<rect x="213.434" y="164.351" fill="#FFFFFF" stroke="#000000" stroke-miterlimit="10" width="19.728" height="44.865"/>
<rect x="437.351" y="205.244" fill="#FFFFFF" stroke="#000000" stroke-miterlimit="10" width="16.757" height="16.757"/>
<rect x="454.107" y="206.953" fill="#FFFFFF" stroke="#000000" stroke-miterlimit="10" width="4.325" height="13.339"/>
<rect x="437.351" y="155.973" fill="#FFFFFF" stroke="#000000" stroke-miterlimit="10" width="16.757" height="16.757"/>
<rect x="454.107" y="157.682" fill="#FFFFFF" stroke="#000000" stroke-miterlimit="10" width="4.325" height="13.339"/>
<rect x="437.351" y="260.315" fill="#FFFFFF" stroke="#000000" stroke-miterlimit="10" width="16.757" height="16.757"/>
<rect x="454.107" y="262.024" fill="#FFFFFF" stroke="#000000" stroke-miterlimit="10" width="4.325" height="13.339"/>
<rect x="437.351" y="313.243" fill="#FFFFFF" stroke="#000000" stroke-miterlimit="10" width="16.757" height="16.757"/>
<rect x="454.107" y="314.953" fill="#FFFFFF" stroke="#000000" stroke-miterlimit="10" width="4.325" height="13.339"/>
<path fill="none" stroke="#000000" stroke-miterlimit="10" d="M289,153.985c0-20.235,34.624-29.527,66-26.735
	c39.333,3.5,55.451,35.5,82.351,35.25"/>
<path fill="none" stroke="#000000" stroke-miterlimit="10" d="M296,153.985c6.5-20.819,28.374-23.676,59.75-20.884
	c39.333,3.5,54.701,35.401,81.601,35.151"/>
<path fill="none" stroke="#000000" stroke-miterlimit="10" d="M333.757,224.75c13.493,0,19.993-18.763,50.993-19.506
	s29.701,6.756,52.601,6.506"/>
<path fill="none" stroke="#000000" stroke-miterlimit="10" d="M333.757,233.75c13.493,0,19.993-22.441,50.993-23.185
	s29.701,6.756,52.601,6.506"/>
<path fill="none" stroke="#000000" stroke-miterlimit="10" d="M333.757,243.25c22.493,0,35.687-8.469,55.993-4.195
	c23.5,4.945,30.844,26.889,47.601,26.445"/>
<path fill="none" stroke="#000000" stroke-miterlimit="10" d="M334.75,251.678c22.493,0,32.049-11.597,52.356-7.324
	c23.5,4.945,33.487,26.896,50.245,26.452"/>
<path fill="none" stroke="#000000" stroke-miterlimit="10" d="M253.75,345.877c0-31.877,44.129-36.384,73.629-37.377
	S413.75,320,437.351,318"/>
<path fill="none" stroke="#000000" stroke-miterlimit="10" d="M258.417,345.877c0-31.877,41.631-29.874,71.131-30.867
	s84.202,11.639,107.803,9.639"/>
<circle fill="none" stroke="#000000" stroke-miterlimit="10" cx="274.298" cy="419.379" r="18.379"/>
<circle fill="none" stroke="#000000" stroke-miterlimit="10" cx="274.297" cy="419.38" r="8.667"/>
<path fill="none" stroke="#000000" stroke-miterlimit="10" d="M228.375,345.877c0,17.225-4.875,38.25,30.042,64.25"/>
<path fill="none" stroke="#000000" stroke-miterlimit="10" d="M222.333,345.877c0,17.225-1.331,43.123,33.585,69.123"/>
<path fill="none" stroke="#000000" stroke-miterlimit="10" d="M216.712,345.877c-0.587,28.373,4.447,49.873,39.363,75.873"/>
<path fill="none" stroke="#000000" stroke-miterlimit="10" d="M233.776,345.877c0,17.225-6.902,34.04,28.014,60.04"/>
<rect x="60.999" y="180.16" fill="none" width="79" height="14.41"/>
<text transform="matrix(1 0 0 1 67.3374 190.7197)"><tspan x="0" y="0" font-family="'ShinGoPr5-Regular-90ms-RKSJ-H'" font-size="12">±12</tspan><tspan x="30.216" y="0" font-family="'ShinGoPr5-Regular-90ms-RKSJ-H'" font-size="12" letter-spacing="3">V</tspan><tspan x="42.324" y="0" font-family="'ShinGoPr5-Regular-90ms-RKSJ-H'" font-size="12">電源</tspan></text>
<rect x="60.999" y="161.884" fill="none" stroke="#000000" stroke-miterlimit="10" width="79" height="49.798"/>
<line fill="none" stroke="#000000" stroke-width="2" stroke-miterlimit="10" x1="139.999" y1="186.783" x2="213.434" y2="186.783"/>
<line fill="none" stroke="#000000" stroke-miterlimit="10" x1="162" y1="194.569" x2="176.717" y2="180.16"/>
<text transform="matrix(1 0 0 1 156.8921 180.1597)" font-family="'ShinGoPr5-Regular-90ms-RKSJ-H'" font-size="12">10</text>
<text transform="matrix(1 0 0 1 419.3882 139.6665)" font-family="'ShinGoPr5-Regular-90ms-RKSJ-H'" font-size="12">MJ-355 x 4</text>
<text transform="matrix(1 0 0 1 261.7031 394.665)"><tspan x="0" y="0" font-family="'ShinGoPr5-Regular-90ms-RKSJ-H'" font-size="12" letter-spacing="3">3</tspan><tspan x="12.108" y="0" font-family="'ShinGoPr5-Regular-90ms-RKSJ-H'" font-size="12">接点ロータリースイッチ</tspan></text>
<text transform="matrix(1 0 0 1 221.2642 433.6641)" font-family="'ShinGoPr5-Regular-90ms-RKSJ-H'" font-size="12">COM</text>
<text transform="matrix(1 0 0 1 233.4175 243.4087)"><tspan x="0" y="0" font-family="'ShinGoPr5-Regular-90ms-RKSJ-H'" font-size="12">3340VCO</tspan><tspan x="9.444" y="21" font-family="'ShinGoPr5-Regular-90ms-RKSJ-H'" font-size="12">Ver.1.1</tspan></text>
<text transform="matrix(1 0 0 1 467.5596 168.2529)" font-family="'ShinGoPr5-Regular-90ms-RKSJ-H'" font-size="12">CV</text>
<text transform="matrix(1 0 0 1 467.8906 217.7944)" font-family="'ShinGoPr5-Regular-90ms-RKSJ-H'" font-size="12">MOD</text>
<text transform="matrix(1 0 0 1 467.1162 272.48)" font-family="'ShinGoPr5-Regular-90ms-RKSJ-H'" font-size="12">PWM</text>
<text transform="matrix(1 0 0 1 467.1104 324.2891)" font-family="'ShinGoPr5-Regular-90ms-RKSJ-H'" font-size="12">OUT</text>
<text transform="matrix(1 0 0 1 296.2275 424.6641)" font-family="'ShinGoPr5-Regular-90ms-RKSJ-H'" font-size="12">WAVE_FORM</text>
</svg>
