<?xml version="1.0" encoding="utf-8"?>
<!-- Generator: Adobe Illustrator 16.0.0, SVG Export Plug-In . SVG Version: 6.00 Build 0)  -->
<!DOCTYPE svg PUBLIC "-//W3C//DTD SVG 1.1//EN" "http://www.w3.org/Graphics/SVG/1.1/DTD/svg11.dtd">
<svg version="1.1" id="レイヤー_1" xmlns="http://www.w3.org/2000/svg" xmlns:xlink="http://www.w3.org/1999/xlink" x="0px"
	 y="0px" width="296.149px" height="35.055px" viewBox="0 0 296.149 35.055" enable-background="new 0 0 296.149 35.055"
	 xml:space="preserve">
<g>
	<g>
		<defs>
			<polygon id="SVGID_1_" points="0,0.661 296.149,0.661 296.149,35.055 0,35.055 0,0.661 			"/>
		</defs>
		<clipPath id="SVGID_2_">
			<use xlink:href="#SVGID_1_"  overflow="visible"/>
		</clipPath>
		<polyline clip-path="url(#SVGID_2_)" fill-rule="evenodd" clip-rule="evenodd" fill="#5A5A5A" points="-0.661,0 -0.661,17.858 
			296.149,17.858 296.149,0 -0.661,0 		"/>
		<g clip-path="url(#SVGID_2_)">
			<path fill="#FFFFFF" d="M9.52,8.655c0,2.717-0.516,3.987-3.362,3.987c-2.688,0-3.63-0.625-3.63-3.987
				c0-3.025,0.694-3.987,3.491-3.987C8.716,4.668,9.52,5.501,9.52,8.655z M3.717,8.655c0,2.39,0.248,2.926,2.42,2.926
				c2.073,0,2.192-0.883,2.192-2.926c0-2.251-0.198-2.926-2.311-2.926C3.896,5.729,3.717,6.443,3.717,8.655z"/>
			<path fill="#FFFFFF" d="M16.123,7.416c-0.01-1.508-0.833-1.686-2.103-1.686c-1.934,0-2.271,0.506-2.271,3.064
				c0,2.083,0.218,2.787,2.301,2.787c1.577,0,2.113-0.228,2.123-1.865h1.19c-0.03,2.242-1.001,2.926-3.164,2.926
				c-2.876,0-3.63-0.863-3.63-3.967c0-2.827,0.585-4.007,3.412-4.007c1.934,0,3.273,0.397,3.322,2.748H16.123z"/>
			<path fill="#FFFFFF" d="M24.541,4.748v1.071h-2.688v6.744h-1.181V5.819h-2.688V4.748H24.541z"/>
			<path fill="#FFFFFF" d="M32.355,12.563h-1.339l-0.714-1.904h-3.561l-0.714,1.904h-1.339l3.045-7.815H29.3L32.355,12.563z
				 M27.099,9.627h2.846l-1.428-3.789L27.099,9.627z"/>
			<path fill="#FFFFFF" d="M33.92,4.748l2.271,6.576l2.261-6.576h1.309l-2.777,7.815h-1.597l-2.777-7.815H33.92z"/>
			<path fill="#FFFFFF" d="M46.107,4.748v1.071h-4.572V8.05h4.344v1.042h-4.344v2.4h4.642v1.071h-5.812V4.748H46.107z"/>
		</g>
		<g clip-path="url(#SVGID_2_)">
			<path fill="#FFFFFF" d="M82.728,4.748v7.815h-1.19V5.819h-1.518V4.748H82.728z"/>
		</g>
		<g clip-path="url(#SVGID_2_)">
			<path fill="#FFFFFF" d="M128.564,9.776c-0.684,0.109-1.229,0.258-1.229,1.498v0.218h5.207v1.071h-6.387V11.7
				c0-1.23,0.099-2.678,2.003-2.956l1.944-0.288c0.873-0.129,1.299-0.367,1.299-1.339c0-0.962-0.457-1.378-1.924-1.378
				c-1.656,0-2.013,0.387-2.023,1.626h-1.17c0.02-1.686,0.506-2.698,3.124-2.698c1.498,0,3.164,0.188,3.164,2.45
				c0,1.042-0.328,1.538-0.863,1.885c-0.317,0.198-0.704,0.387-1.259,0.476L128.564,9.776z"/>
		</g>
		<g clip-path="url(#SVGID_2_)">
			<path fill="#FFFFFF" d="M174.909,9.895c-0.01,0.982-0.02,1.676,2.063,1.676c1.408,0,2.043-0.218,2.043-1.28
				c0-0.535-0.059-1.279-1.518-1.279h-1.23V8.05h1.23c0.496,0,1.418,0,1.418-1.121c0-0.893-0.525-1.19-1.705-1.19
				c-2.113,0-2.123,0.665-2.133,1.428h-1.189c0.068-2.212,1.238-2.5,3.262-2.5c0.924,0,2.947,0,2.947,2.123
				c0,1.389-0.873,1.626-1.111,1.696c0.307,0.109,1.209,0.426,1.209,1.854c0,2.182-1.863,2.301-3.084,2.301
				c-2.807,0-3.383-0.843-3.383-2.747H174.909z"/>
		</g>
		<g clip-path="url(#SVGID_2_)">
			<path fill="#FFFFFF" d="M226.776,4.748v5.038h1.311v1.071h-1.311v1.706h-1.17v-1.706h-4.582V9.568l4.127-4.82H226.776z
				 M225.606,5.759l-3.402,4.026h3.402V5.759z"/>
		</g>
		<g clip-path="url(#SVGID_2_)">
			<path fill="#FFFFFF" d="M275.045,4.748v1.071h-4.691l-0.07,2.103c0.248-0.208,0.725-0.605,2.213-0.605
				c1.566,0,2.855,0.426,2.855,2.599c0,1.845-0.654,2.727-3.213,2.727c-2.262,0-3.164-0.605-3.203-2.509h1.18
				c0.01,0.734,0.01,1.438,1.984,1.438c1.506,0,2.072-0.288,2.072-1.498c0-0.923-0.061-1.706-1.914-1.706
				c-1.607,0-1.865,0.417-2.004,0.764h-1.102l0.1-4.384H275.045z"/>
		</g>
		<g clip-path="url(#SVGID_2_)">
			<path fill="#010101" d="M3.063,21.735h8.103v8.043c0,0.625-0.376,0.883-0.773,0.883H8.904l-0.119-0.981h1.081
				c0.268,0,0.308-0.05,0.308-0.258v-6.755H4.044v2.837c0,0.952-0.02,3.422-1.131,5.157L2.11,29.778
				c0.952-1.349,0.952-3.471,0.952-4.245V21.735z M6.604,25.126v-0.804H4.61V23.49h1.994v-0.604h0.962v0.604h2.023v0.833H7.565
				v0.804h2.132v0.843H4.521v-0.843H6.604z M4.808,26.505h4.513v2.916H4.808V26.505z M5.75,27.358v1.22h2.648v-1.22H5.75z"/>
			<path fill="#010101" d="M14.625,27.071c-0.595,1.557-1.17,2.549-1.924,3.58l-0.674-0.992c0.674-0.882,1.339-2.053,1.746-3.153
				L14.625,27.071z M12.591,24.045c0.724,0.268,1.488,0.804,1.706,0.962l-0.565,0.933c-0.565-0.427-0.982-0.675-1.646-0.982
				L12.591,24.045z M13.117,21.358c0.437,0.168,1.349,0.684,1.687,0.932l-0.595,0.942c-0.645-0.525-1.398-0.922-1.626-1.041
				L13.117,21.358z M20.933,26.049c-0.208,0.555-0.625,1.587-1.508,2.568c0.804,0.605,1.577,0.853,2.192,1.021l-0.476,1.012
				c-1.2-0.416-1.924-0.813-2.499-1.299c-0.823,0.635-1.617,1.001-2.43,1.299l-0.565-0.933c0.476-0.129,1.299-0.347,2.271-1.061
				c-0.347-0.397-0.714-0.883-1.24-2.014l0.902-0.417c0.238,0.446,0.575,1.092,1.121,1.727c0.694-0.784,0.992-1.479,1.17-1.904
				h-3.68v0.564c0,0.179-0.069,1.171-0.307,2.104c-0.238,0.912-0.734,1.616-0.962,1.934l-0.853-0.664
				c0.268-0.357,1.121-1.479,1.121-3.393v-4.186h2.559v-1.051h0.992v1.051h2.688c-0.159,1.031-0.317,1.597-0.595,2.331l-0.992-0.229
				c0.278-0.733,0.308-0.823,0.387-1.13h-1.488v1.745h2.192V26.049z M16.191,23.381v1.745h1.557v-1.745H16.191z"/>
			<path fill="#010101" d="M31.404,22.795v1.021h-0.407c-0.02,0.575-0.089,2.787-1.031,4.345c0.654,0.883,1.349,1.319,1.656,1.518
				l-0.645,0.922c-0.437-0.297-1.062-0.743-1.667-1.547c-0.823,0.883-1.527,1.279-1.904,1.497l-0.724-0.932l-0.417,0.664
				c-0.268-0.148-0.545-0.308-1.121-0.595c-0.426,0.298-1.19,0.685-2.539,1.041l-0.446-0.893c0.754-0.108,1.359-0.258,2.003-0.585
				c-0.793-0.327-1.299-0.446-1.597-0.525c0.238-0.327,0.446-0.615,0.724-1.27H22.16v-0.863h1.458
				c0.109-0.327,0.159-0.506,0.218-0.694l0.436,0.09v-1.558c-0.575,0.665-1.021,1.101-1.656,1.458l-0.654-0.733
				c0.813-0.397,1.527-1.071,1.795-1.379H22.16v-0.784h0.734c-0.119-0.485-0.288-0.893-0.476-1.289l0.873-0.298
				c0.297,0.685,0.396,1.121,0.456,1.379l-0.685,0.208h1.21v-1.656h0.923v1.656h1.2l-0.873-0.247
				c0.278-0.586,0.308-0.665,0.575-1.409l0.922,0.229c-0.228,0.625-0.278,0.744-0.615,1.428h0.625v0.784h-1.488
				c0.516,0.437,0.694,0.595,1.21,0.833l-0.615,0.754c-0.426-0.288-0.615-0.486-0.942-0.863V26h-0.863l0.457,0.089
				c-0.069,0.248-0.099,0.338-0.159,0.506h2.509v0.863h-0.506c-0.159,0.466-0.377,1.012-0.774,1.537
				c0.317,0.148,0.813,0.377,0.942,0.437l-0.099,0.158c0.635-0.208,1.418-0.614,2.073-1.398c-0.555-1.091-0.773-2.47-0.833-2.955
				c-0.238,0.426-0.367,0.585-0.536,0.813l-0.773-0.734c0.902-1.31,1.279-2.697,1.488-4.037l1.012,0.179
				c-0.08,0.605-0.149,0.942-0.248,1.339H31.404z M24.302,27.458c-0.159,0.377-0.277,0.604-0.387,0.813
				c0.565,0.178,0.813,0.258,1.091,0.356c0.417-0.466,0.555-0.893,0.645-1.17H24.302z M28.637,23.817
				c0.03,0.407,0.179,2.162,0.744,3.383c0.278-0.635,0.605-1.746,0.635-3.383H28.637z"/>
			<path fill="#010101" d="M35.894,21.943c-0.605,0.793-1.696,2.311-1.696,4.572c0,1.706,0.595,3.253,1.696,4.572h-0.942
				c-1.696-2.004-1.775-3.968-1.775-4.572c0-1.329,0.377-2.758,1.775-4.572H35.894z"/>
			<path fill="#010101" d="M38.214,21.943v3.253h4.354v-3.253h1.17v7.815h-1.17v-3.491h-4.354v3.491h-1.18v-7.815H38.214z"/>
			<path fill="#010101" d="M49.409,23.917v1.012l-3.313,3.818h3.342v1.012h-4.78v-1.012l3.322-3.818h-3.223v-1.012H49.409z"/>
			<path fill="#010101" d="M50.776,21.943c1.389,1.814,1.775,3.243,1.775,4.572c0,0.604-0.089,2.568-1.775,4.572h-0.952
				c1.101-1.319,1.696-2.866,1.696-4.572c0-2.262-1.091-3.779-1.696-4.572H50.776z"/>
		</g>
		<g clip-path="url(#SVGID_2_)">
			<path fill="#010101" d="M81.626,26.971c-0.684,0.109-1.229,0.258-1.229,1.498v0.218h5.207v1.071h-6.387v-0.863
				c0-1.229,0.099-2.678,2.003-2.955l1.944-0.288c0.873-0.129,1.299-0.366,1.299-1.339c0-0.962-0.457-1.379-1.924-1.379
				c-1.656,0-2.013,0.388-2.023,1.627h-1.17c0.02-1.686,0.506-2.697,3.124-2.697c1.498,0,3.164,0.188,3.164,2.449
				c0,1.042-0.328,1.537-0.863,1.885c-0.317,0.198-0.704,0.387-1.259,0.476L81.626,26.971z"/>
			<path fill="#010101" d="M92.951,21.943v1.101l-3.818,6.715h-1.428l4.007-6.744h-5.257v-1.071H92.951z"/>
			<path fill="#010101" d="M95.142,28.429v1.329h-1.28v-1.329H95.142z"/>
			<path fill="#010101" d="M102.52,21.943v1.071h-4.691l-0.069,2.103c0.248-0.208,0.724-0.605,2.212-0.605
				c1.567,0,2.856,0.427,2.856,2.599c0,1.845-0.655,2.728-3.214,2.728c-2.261,0-3.164-0.604-3.203-2.509h1.18
				c0.01,0.733,0.01,1.438,1.983,1.438c1.508,0,2.073-0.287,2.073-1.497c0-0.923-0.059-1.706-1.914-1.706
				c-1.606,0-1.865,0.416-2.003,0.764h-1.101l0.1-4.384H102.52z"/>
		</g>
		<g clip-path="url(#SVGID_2_)">
			<path fill="#010101" d="M142.834,21.943v1.071h-4.691l-0.069,2.103c0.248-0.208,0.724-0.605,2.212-0.605
				c1.567,0,2.856,0.427,2.856,2.599c0,1.845-0.655,2.728-3.214,2.728c-2.261,0-3.164-0.604-3.203-2.509h1.18
				c0.01,0.733,0.01,1.438,1.983,1.438c1.508,0,2.073-0.287,2.073-1.497c0-0.923-0.059-1.706-1.914-1.706
				c-1.606,0-1.865,0.416-2.003,0.764h-1.101l0.1-4.384H142.834z"/>
			<path fill="#010101" d="M150.112,21.943v1.071h-4.692l-0.069,2.103c0.248-0.208,0.724-0.605,2.212-0.605
				c1.567,0,2.856,0.427,2.856,2.599c0,1.845-0.654,2.728-3.213,2.728c-2.261,0-3.164-0.604-3.204-2.509h1.181
				c0.01,0.733,0.01,1.438,1.983,1.438c1.508,0,2.073-0.287,2.073-1.497c0-0.923-0.06-1.706-1.915-1.706
				c-1.606,0-1.865,0.416-2.003,0.764h-1.101l0.099-4.384H150.112z"/>
		</g>
		<g clip-path="url(#SVGID_2_)">
			<path fill="#010101" d="M181.229,21.943v7.815h-1.191v-6.744h-1.518v-1.071H181.229z"/>
			<path fill="#010101" d="M188.506,21.943v7.815h-1.189v-6.744h-1.518v-1.071H188.506z"/>
			<path fill="#010101" d="M198.094,25.959c0,2.856-0.564,3.878-3.273,3.878c-2.658,0-3.281-0.922-3.281-3.987
				c0-3.045,0.613-3.986,3.281-3.986C197.53,21.864,198.094,22.835,198.094,25.959z M192.729,25.871c0,2.47,0.229,2.896,2.162,2.896
				c1.785,0,2.014-0.516,2.014-2.856c0-2.599-0.268-2.976-2.094-2.976C192.967,22.934,192.729,23.371,192.729,25.871z"/>
		</g>
		<g clip-path="url(#SVGID_2_)">
			<path fill="#010101" d="M227.057,26.971c-0.686,0.109-1.23,0.258-1.23,1.498v0.218h5.207v1.071h-6.387v-0.863
				c0-1.229,0.098-2.678,2.002-2.955l1.945-0.288c0.873-0.129,1.299-0.366,1.299-1.339c0-0.962-0.457-1.379-1.924-1.379
				c-1.656,0-2.014,0.388-2.023,1.627h-1.17c0.02-1.686,0.506-2.697,3.123-2.697c1.498,0,3.164,0.188,3.164,2.449
				c0,1.042-0.326,1.537-0.863,1.885c-0.316,0.198-0.703,0.387-1.26,0.476L227.057,26.971z"/>
			<path fill="#010101" d="M234.334,26.971c-0.684,0.109-1.23,0.258-1.23,1.498v0.218h5.207v1.071h-6.387v-0.863
				c0-1.229,0.1-2.678,2.004-2.955l1.943-0.288c0.873-0.129,1.299-0.366,1.299-1.339c0-0.962-0.455-1.379-1.924-1.379
				c-1.656,0-2.014,0.388-2.023,1.627h-1.17c0.02-1.686,0.506-2.697,3.125-2.697c1.498,0,3.164,0.188,3.164,2.449
				c0,1.042-0.328,1.537-0.863,1.885c-0.318,0.198-0.705,0.387-1.26,0.476L234.334,26.971z"/>
			<path fill="#010101" d="M245.688,25.959c0,2.856-0.564,3.878-3.273,3.878c-2.658,0-3.281-0.922-3.281-3.987
				c0-3.045,0.613-3.986,3.281-3.986C245.124,21.864,245.688,22.835,245.688,25.959z M240.323,25.871
				c0,2.47,0.229,2.896,2.162,2.896c1.785,0,2.014-0.516,2.014-2.856c0-2.599-0.268-2.976-2.094-2.976
				C240.561,22.934,240.323,23.371,240.323,25.871z"/>
		</g>
		<g clip-path="url(#SVGID_2_)">
			<path fill="#010101" d="M277.674,21.943v5.038h1.311v1.071h-1.311v1.706h-1.17v-1.706h-4.582v-1.289l4.127-4.82H277.674z
				 M276.504,22.955l-3.402,4.026h3.402V22.955z"/>
			<path fill="#010101" d="M284.954,21.943v5.038h1.309v1.071h-1.309v1.706h-1.17v-1.706h-4.582v-1.289l4.125-4.82H284.954z
				 M283.784,22.955l-3.402,4.026h3.402V22.955z"/>
			<path fill="#010101" d="M293.282,25.959c0,2.856-0.564,3.878-3.273,3.878c-2.658,0-3.281-0.922-3.281-3.987
				c0-3.045,0.613-3.986,3.281-3.986C292.717,21.864,293.282,22.835,293.282,25.959z M287.917,25.871
				c0,2.47,0.229,2.896,2.162,2.896c1.785,0,2.014-0.516,2.014-2.856c0-2.599-0.268-2.976-2.094-2.976
				C288.155,22.934,287.917,23.371,287.917,25.871z"/>
		</g>
	</g>
	<g>
		<defs>
			<polygon id="SVGID_3_" points="-0.661,0 296.149,0 296.149,35.055 -0.661,35.055 -0.661,0 			"/>
		</defs>
		<clipPath id="SVGID_4_">
			<use xlink:href="#SVGID_3_"  overflow="visible"/>
		</clipPath>
		<polyline clip-path="url(#SVGID_4_)" fill-rule="evenodd" clip-rule="evenodd" fill="#E0E1E0" points="-0.661,0 -0.661,0 0,0 0,0 
			-0.661,0 		"/>
		<polyline clip-path="url(#SVGID_4_)" fill-rule="evenodd" clip-rule="evenodd" fill="#E0E1E0" points="57.511,0 57.511,0 
			58.172,0 58.172,0 57.511,0 		"/>
		<polyline clip-path="url(#SVGID_4_)" fill-rule="evenodd" clip-rule="evenodd" fill="#E0E1E0" points="105.106,0 105.106,0 
			105.768,0 105.768,0 105.106,0 		"/>
		<polyline clip-path="url(#SVGID_4_)" fill-rule="evenodd" clip-rule="evenodd" fill="#E0E1E0" points="152.702,0 152.702,0 
			153.362,0 153.362,0 152.702,0 		"/>
		<polyline clip-path="url(#SVGID_4_)" fill-rule="evenodd" clip-rule="evenodd" fill="#E0E1E0" points="200.297,0 200.297,0 
			200.958,0 200.958,0 200.297,0 		"/>
		<polyline clip-path="url(#SVGID_4_)" fill-rule="evenodd" clip-rule="evenodd" fill="#E0E1E0" points="247.891,0 247.891,0 
			248.553,0 248.553,0 247.891,0 		"/>
		
			<line clip-path="url(#SVGID_4_)" fill="none" stroke="#010101" stroke-width="0" stroke-linecap="square" stroke-miterlimit="10" x1="0" y1="0" x2="296.149" y2="0"/>
		<polyline clip-path="url(#SVGID_4_)" fill-rule="evenodd" clip-rule="evenodd" fill="#010101" points="0,0 0,0.661 296.149,0.661 
			296.149,0 0,0 		"/>
		<polyline clip-path="url(#SVGID_4_)" fill-rule="evenodd" clip-rule="evenodd" fill="#E0E1E0" points="295.487,0 295.487,0 
			296.149,0 296.149,0 295.487,0 		"/>
		
			<line clip-path="url(#SVGID_4_)" fill="none" stroke="#010101" stroke-width="0" stroke-linecap="square" stroke-miterlimit="10" x1="0" y1="17.197" x2="296.149" y2="17.197"/>
		<polyline clip-path="url(#SVGID_4_)" fill-rule="evenodd" clip-rule="evenodd" fill="#010101" points="0,17.197 0,17.858 
			296.149,17.858 296.149,17.197 0,17.197 		"/>
		
			<line clip-path="url(#SVGID_4_)" fill="none" stroke="#010101" stroke-width="0" stroke-linecap="square" stroke-miterlimit="10" x1="-0.661" y1="0" x2="-0.661" y2="35.055"/>
		<polyline clip-path="url(#SVGID_4_)" fill-rule="evenodd" clip-rule="evenodd" fill="#010101" points="-0.661,0 -0.661,35.055 
			0,35.055 0,0 -0.661,0 		"/>
		
			<line clip-path="url(#SVGID_4_)" fill="none" stroke="#010101" stroke-width="0" stroke-linecap="square" stroke-miterlimit="10" x1="57.511" y1="0.661" x2="57.511" y2="35.055"/>
		<polyline clip-path="url(#SVGID_4_)" fill-rule="evenodd" clip-rule="evenodd" fill="#010101" points="57.511,0.661 
			57.511,35.055 58.172,35.055 58.172,0.661 57.511,0.661 		"/>
		
			<line clip-path="url(#SVGID_4_)" fill="none" stroke="#010101" stroke-width="0" stroke-linecap="square" stroke-miterlimit="10" x1="105.106" y1="0.661" x2="105.106" y2="35.055"/>
		<polyline clip-path="url(#SVGID_4_)" fill-rule="evenodd" clip-rule="evenodd" fill="#010101" points="105.106,0.661 
			105.106,35.055 105.768,35.055 105.768,0.661 105.106,0.661 		"/>
		
			<line clip-path="url(#SVGID_4_)" fill="none" stroke="#010101" stroke-width="0" stroke-linecap="square" stroke-miterlimit="10" x1="152.702" y1="0.661" x2="152.702" y2="35.055"/>
		<polyline clip-path="url(#SVGID_4_)" fill-rule="evenodd" clip-rule="evenodd" fill="#010101" points="152.702,0.661 
			152.702,35.055 153.362,35.055 153.362,0.661 152.702,0.661 		"/>
		
			<line clip-path="url(#SVGID_4_)" fill="none" stroke="#010101" stroke-width="0" stroke-linecap="square" stroke-miterlimit="10" x1="200.297" y1="0.661" x2="200.297" y2="35.055"/>
		<polyline clip-path="url(#SVGID_4_)" fill-rule="evenodd" clip-rule="evenodd" fill="#010101" points="200.297,0.661 
			200.297,35.055 200.958,35.055 200.958,0.661 200.297,0.661 		"/>
		
			<line clip-path="url(#SVGID_4_)" fill="none" stroke="#010101" stroke-width="0" stroke-linecap="square" stroke-miterlimit="10" x1="247.891" y1="0.661" x2="247.891" y2="35.055"/>
		<polyline clip-path="url(#SVGID_4_)" fill-rule="evenodd" clip-rule="evenodd" fill="#010101" points="247.891,0.661 
			247.891,35.055 248.553,35.055 248.553,0.661 247.891,0.661 		"/>
		
			<line clip-path="url(#SVGID_4_)" fill="none" stroke="#010101" stroke-width="0" stroke-linecap="square" stroke-miterlimit="10" x1="0" y1="34.394" x2="296.149" y2="34.394"/>
		<polyline clip-path="url(#SVGID_4_)" fill-rule="evenodd" clip-rule="evenodd" fill="#010101" points="0,34.394 0,35.055 
			296.149,35.055 296.149,34.394 0,34.394 		"/>
		
			<line clip-path="url(#SVGID_4_)" fill="none" stroke="#010101" stroke-width="0" stroke-linecap="square" stroke-miterlimit="10" x1="295.487" y1="0.661" x2="295.487" y2="35.055"/>
		<polyline clip-path="url(#SVGID_4_)" fill-rule="evenodd" clip-rule="evenodd" fill="#010101" points="295.487,0.661 
			295.487,35.055 296.149,35.055 296.149,0.661 295.487,0.661 		"/>
		
			<line clip-path="url(#SVGID_4_)" fill="none" stroke="#E0E1E0" stroke-width="0" stroke-linecap="square" stroke-miterlimit="10" x1="-0.661" y1="35.055" x2="-0.661" y2="35.716"/>
		<polyline clip-path="url(#SVGID_4_)" fill-rule="evenodd" clip-rule="evenodd" fill="#E0E1E0" points="-0.661,35.055 
			-0.661,35.716 0,35.716 0,35.055 -0.661,35.055 		"/>
		
			<line clip-path="url(#SVGID_4_)" fill="none" stroke="#E0E1E0" stroke-width="0" stroke-linecap="square" stroke-miterlimit="10" x1="57.511" y1="35.055" x2="57.511" y2="35.716"/>
		<polyline clip-path="url(#SVGID_4_)" fill-rule="evenodd" clip-rule="evenodd" fill="#E0E1E0" points="57.511,35.055 
			57.511,35.716 58.172,35.716 58.172,35.055 57.511,35.055 		"/>
		
			<line clip-path="url(#SVGID_4_)" fill="none" stroke="#E0E1E0" stroke-width="0" stroke-linecap="square" stroke-miterlimit="10" x1="105.106" y1="35.055" x2="105.106" y2="35.716"/>
		<polyline clip-path="url(#SVGID_4_)" fill-rule="evenodd" clip-rule="evenodd" fill="#E0E1E0" points="105.106,35.055 
			105.106,35.716 105.768,35.716 105.768,35.055 105.106,35.055 		"/>
		
			<line clip-path="url(#SVGID_4_)" fill="none" stroke="#E0E1E0" stroke-width="0" stroke-linecap="square" stroke-miterlimit="10" x1="152.702" y1="35.055" x2="152.702" y2="35.716"/>
		<polyline clip-path="url(#SVGID_4_)" fill-rule="evenodd" clip-rule="evenodd" fill="#E0E1E0" points="152.702,35.055 
			152.702,35.716 153.362,35.716 153.362,35.055 152.702,35.055 		"/>
		
			<line clip-path="url(#SVGID_4_)" fill="none" stroke="#E0E1E0" stroke-width="0" stroke-linecap="square" stroke-miterlimit="10" x1="200.297" y1="35.055" x2="200.297" y2="35.716"/>
		<polyline clip-path="url(#SVGID_4_)" fill-rule="evenodd" clip-rule="evenodd" fill="#E0E1E0" points="200.297,35.055 
			200.297,35.716 200.958,35.716 200.958,35.055 200.297,35.055 		"/>
		
			<line clip-path="url(#SVGID_4_)" fill="none" stroke="#E0E1E0" stroke-width="0" stroke-linecap="square" stroke-miterlimit="10" x1="247.891" y1="35.055" x2="247.891" y2="35.716"/>
		<polyline clip-path="url(#SVGID_4_)" fill-rule="evenodd" clip-rule="evenodd" fill="#E0E1E0" points="247.891,35.055 
			247.891,35.716 248.553,35.716 248.553,35.055 247.891,35.055 		"/>
		
			<line clip-path="url(#SVGID_4_)" fill="none" stroke="#E0E1E0" stroke-width="0" stroke-linecap="square" stroke-miterlimit="10" x1="295.487" y1="35.055" x2="295.487" y2="35.716"/>
		<polyline clip-path="url(#SVGID_4_)" fill-rule="evenodd" clip-rule="evenodd" fill="#E0E1E0" points="295.487,35.055 
			295.487,35.716 296.149,35.716 296.149,35.055 295.487,35.055 		"/>
		
			<line clip-path="url(#SVGID_4_)" fill="none" stroke="#E0E1E0" stroke-width="0" stroke-linecap="square" stroke-miterlimit="10" x1="296.149" y1="0" x2="296.809" y2="0"/>
		<polyline clip-path="url(#SVGID_4_)" fill-rule="evenodd" clip-rule="evenodd" fill="#E0E1E0" points="296.149,0 296.149,0.661 
			296.809,0.661 296.809,0 296.149,0 		"/>
		
			<line clip-path="url(#SVGID_4_)" fill="none" stroke="#E0E1E0" stroke-width="0" stroke-linecap="square" stroke-miterlimit="10" x1="296.149" y1="17.197" x2="296.809" y2="17.197"/>
		<polyline clip-path="url(#SVGID_4_)" fill-rule="evenodd" clip-rule="evenodd" fill="#E0E1E0" points="296.149,17.197 
			296.149,17.858 296.809,17.858 296.809,17.197 296.149,17.197 		"/>
		
			<line clip-path="url(#SVGID_4_)" fill="none" stroke="#E0E1E0" stroke-width="0" stroke-linecap="square" stroke-miterlimit="10" x1="296.149" y1="34.394" x2="296.809" y2="34.394"/>
		<polyline clip-path="url(#SVGID_4_)" fill-rule="evenodd" clip-rule="evenodd" fill="#E0E1E0" points="296.149,34.394 
			296.149,35.055 296.809,35.055 296.809,34.394 296.149,34.394 		"/>
	</g>
	<g>
		<defs>
			<polygon id="SVGID_5_" points="0,0.661 296.149,0.661 296.149,35.055 0,35.055 0,0.661 			"/>
		</defs>
		<defs>
			<polygon id="SVGID_6_" points="0,0.661 296.149,0.661 296.149,35.055 0,35.055 0,0.661 			"/>
		</defs>
		<clipPath id="SVGID_7_">
			<use xlink:href="#SVGID_5_"  overflow="visible"/>
		</clipPath>
		<clipPath id="SVGID_8_" clip-path="url(#SVGID_7_)">
			<use xlink:href="#SVGID_6_"  overflow="visible"/>
		</clipPath>
	</g>
</g>
<g>
</g>
<g>
</g>
<g>
</g>
<g>
</g>
<g>
</g>
<g>
</g>
</svg>
